<svg width="30" height="30" viewBox="0 0 30 30" fill="none" xmlns="http://www.w3.org/2000/svg">
<rect x="16.25" y="17.5" width="2.5" height="2.5" rx="1" fill="#E1E1E1"/>
<rect x="8.75" y="13.75" width="2.5" height="7.5" rx="1" fill="#E1E1E1"/>
<rect x="13.75" y="16.25" width="2.5" height="7.5" rx="1" transform="rotate(90 13.75 16.25)" fill="#E1E1E1"/>
<rect x="20" y="15" width="2.5" height="2.5" rx="1" fill="#E1E1E1"/>
<path d="M17.5 10V10C17.5 9.10521 17.5 8.65781 17.3434 8.28569C17.2057 7.9587 16.9836 7.67421 16.6998 7.46139C16.3768 7.21919 15.9427 7.11068 15.0746 6.89366L15 6.875C14.0601 6.64002 13.5901 6.52254 13.2486 6.24857C13.0064 6.05427 12.8127 5.80623 12.6829 5.5241C12.5 5.1263 12.5 4.64189 12.5 3.67306V2.5" stroke="#E1E1E1" stroke-width="2" stroke-linecap="round"/>
<path d="M3.75 17.5C3.75 14.3015 3.75 12.7022 4.52493 11.6005C4.72443 11.3169 4.95715 11.063 5.21714 10.8454C6.22705 10 7.69303 10 10.625 10H19.375C22.307 10 23.773 10 24.7829 10.8454C25.0429 11.063 25.2756 11.3169 25.4751 11.6005C26.25 12.7022 26.25 14.3015 26.25 17.5C26.25 20.6985 26.25 22.2978 25.4751 23.3995C25.2756 23.6831 25.0429 23.937 24.7829 24.1546C23.773 25 22.307 25 19.375 25H10.625C7.69303 25 6.22705 25 5.21714 24.1546C4.95715 23.937 4.72443 23.6831 4.52493 23.3995C3.75 22.2978 3.75 20.6985 3.75 17.5Z" stroke="#E1E1E1" stroke-width="2"/>
</svg>
